<?xml version="1.0" encoding="UTF-8"?>
<!DOCTYPE svg PUBLIC "-//W3C//DTD SVG 1.1//EN" "http://www.w3.org/Graphics/SVG/1.1/DTD/svg11.dtd">
<!-- Creator: CorelDRAW X6 -->
<svg xmlns="http://www.w3.org/2000/svg" xml:space="preserve" width="8.26772in" height="11.6929in" version="1.1" style="shape-rendering:geometricPrecision; text-rendering:geometricPrecision; image-rendering:optimizeQuality; fill-rule:evenodd; clip-rule:evenodd"
viewBox="0 0 8268 11693"
 xmlns:xlink="http://www.w3.org/1999/xlink">
 <defs>
  <style type="text/css">
   <![CDATA[
    .fil2 {fill:#FEFEFE}
    .fil0 {fill:red}
    .fil1 {fill:#FEFEFE;fill-rule:nonzero}
   ]]>
  </style>
 </defs>
 <g id="Layer_x0020_1">
  <metadata id="CorelCorpID_0Corel-Layer"/>
  <path class="fil0" d="M3165 5737l1339 0c281,0 512,230 512,512l0 1084 -2 -3c-61,-85 -148,-151 -252,-186 -14,-6 -29,-11 -44,-16l-6 -2c-23,-170 -106,-322 -227,-434 -129,-120 -302,-193 -492,-193 -128,0 -250,33 -356,93 -93,52 -173,124 -235,212 -14,-5 -28,-9 -43,-13 -32,-8 -65,-12 -98,-12 -110,0 -210,44 -284,115 -66,63 -110,148 -122,244 -82,44 -152,107 -203,184l0 -1073c0,-281 230,-512 512,-512zm-360 2203c79,79 189,129 310,129l0 0c3,0 1143,-5 1521,-1 33,0 86,-27 139,-64 61,-44 118,-100 145,-146l3 -4c23,-33 40,-69 52,-106 12,-37 18,-77 18,-117 0,-86 -27,-166 -74,-231 -47,-66 -115,-117 -195,-144l-4 -2c-12,-5 -24,-10 -36,-13 -12,-4 -24,-7 -37,-10l-43 -9 -3 -44c-12,-157 -84,-297 -193,-398 -108,-100 -253,-161 -412,-161 -108,0 -210,28 -298,78 -90,51 -166,124 -221,214l-29 47 -49 -26c-20,-11 -42,-19 -66,-25 -22,-5 -46,-8 -70,-8 -79,0 -150,31 -202,82 -53,51 -86,121 -89,199l-1 37 -33 15c-78,35 -143,92 -189,163 -45,69 -71,151 -71,237 0,121 49,230 129,310z"/>
  <g id="_451076144">
   <path class="fil1" d="M3186 7182c0,-16 5,-30 17,-41 11,-11 25,-17 41,-17 16,0 30,5 41,17 11,11 17,25 17,41 0,16 -5,30 -17,41 -11,11 -25,17 -41,17 -16,0 -30,-5 -41,-17 -11,-11 -17,-25 -17,-41zm7 660l0 -510 102 0 0 510 -102 0zm308 -255c0,47 16,88 48,121 32,34 71,50 116,50 45,0 83,-17 116,-50 32,-34 48,-74 48,-121 0,-47 -16,-87 -48,-120 -32,-34 -71,-50 -116,-50 -45,0 -84,17 -116,50 -32,34 -48,74 -48,120zm-106 0c0,-74 26,-137 79,-188 53,-51 117,-77 192,-77 36,0 70,7 102,20 33,13 62,33 87,58 26,27 46,56 60,87 14,32 20,65 20,101 0,35 -7,69 -21,102 -14,33 -34,62 -59,87 -26,25 -55,44 -87,57 -32,13 -66,19 -103,19 -76,0 -140,-26 -192,-77 -53,-52 -79,-114 -79,-188zm1090 -254l-213 233 256 277 -139 0 -249 -271 219 -238 125 0zm-450 510l0 -772 102 0 0 772 -102 0z"/>
   <path class="fil2" d="M3246 7040c56,0 101,45 101,101 0,56 -45,101 -101,101 -56,0 -101,-45 -101,-101 0,-56 45,-101 101,-101z"/>
  </g>
 </g>
</svg>
